{"title":"Point Break-720p MP4 AAC x264 BRRip 1991-CC","uid":7361521,"size":2501516425,"categoryP":"video","categoryS":"hd___movies","magnet":"?xt=urn:btih:98179c70c86479210465fa24fc91bc13b98e9ab8&amp;dn=Point+Break-720p+MP4+AAC+x264+BRRip+1991-CC&amp;tr=udp%3A%2F%2Ftracker.openbittorrent.com%3A80&amp;tr=udp%3A%2F%2Fopen.demonii.com%3A1337&amp;tr=udp%3A%2F%2Ftracker.coppersurfer.tk%3A6969&amp;tr=udp%3A%2F%2Fexodus.desync.com%3A6969","seeders":1,"leechers":0,"uploader":"Caveman44","files":-1,"time":1339973242,"description":" &lt;a href=&quot;http://www.imdb.com/title/tt0102685/&quot; rel=&quot;nofollow&quot; target=&quot;_NEW&quot;&gt;http://www.imdb.com/title/tt0102685/&lt;/a&gt;\n\nSource: Point.Break.1991.720p.Bluray.DTS.x264-RuDE\n\nSubs: Brazilian, Bulgarian, Czech, Danish, Dutch, English, French, German, Greek, Hungarian, Polish, Portuguese, Servian, Slovenian, Spanish, Swedish and Vietnamese.\n\nSample and Screens included.\n\nGeneral\nComplete name                    : Point Break-720p MP4 AAC x264 BRRip 1991-CC.mp4\nFormat                           : MPEG-4\nFormat profile                   : Base Media\nCodec ID                         : isom\nFile size                        : 2.30 GiB\nDuration                         : 2h 2mn\nOverall bit rate                 : 2 697 Kbps\nEncoded date                     : UTC 2012-06-15 09:17:40\n\nVideo\nID                               : 1\nFormat                           : AVC\nFormat/Info                      : Advanced Video Codec\nFormat profile                   : &lt;a class=&quot;__cf_email__&quot; href=&quot;/cdn-cgi/l/email-protection&quot; data-cfemail=&quot;6e260709062e225d405f&quot;&gt;[email&amp;#160;protected]&lt;/a&gt;&lt;script cf-hash='f9e31' type=&quot;text/javascript&quot;&gt;\n/* &lt;![CDATA[ */!function(){try{var t=&quot;currentScript&quot;in document?document.currentScript:function(){for(var t=document.getElementsByTagName(&quot;script&quot;),e=t.length;e--;)if(t[e].getAttribute(&quot;cf-hash&quot;))return t[e]}();if(t&amp;&amp;t.previousSibling){var e,r,n,i,c=t.previousSibling,a=c.getAttribute(&quot;data-cfemail&quot;);if(a){for(e=&quot;&quot;,r=parseInt(a.substr(0,2),16),n=2;a.length-n;n+=2)i=parseInt(a.substr(n,2),16)^r,e+=String.fromCharCode(i);e=document.createTextNode(e),c.parentNode.replaceChild(e,c)}}}catch(u){}}();/* ]]&gt; */&lt;/script&gt;\nFormat settings, CABAC           : Yes\nFormat settings, ReFrames        : 5 frames\nCodec ID                         : avc1\nCodec ID/Info                    : Advanced Video Coding\nDuration                         : 2h 2mn\nBit rate mode                    : Variable\nBit rate                         : 2 308 Kbps\nNominal bit rate                 : 2 337 Kbps\nMaximum bit rate                 : 21.2 Mbps\nWidth                            : 1 280 pixels\nHeight                           : 544 pixels\nDisplay aspect ratio             : 2.35:1\nFrame rate mode                  : Variable\nFrame rate                       : 23.976 fps\nMinimum frame rate               : 23.810 fps\nMaximum frame rate               : 24.390 fps\nResolution                       : 24 bits\nColorimetry                      : 4:2:0\nScan type                        : Progressive\nBits/(Pixel*Frame)               : 0.138\nStream size                      : 1.97 GiB (86%)\nWriting library                  : x264 core 112\n\nAudio\nID                               : 2\nFormat                           : AAC\nFormat/Info                      : Advanced Audio Codec\nFormat version                   : Version 4\nFormat profile                   : LC\nFormat settings, SBR             : No\nCodec ID                         : 40\nDuration                         : 2h 2mn\nBit rate mode                    : Variable\nBit rate                         : 384 Kbps\nMaximum bit rate                 : 670 Kbps\nChannel(s)                       : 6 channels\nChannel positions                : Front: L C R, Rear: L R, LFE\nSampling rate                    : 48.0 KHz\nResolution                       : 16 bits\nStream size                      : 335 MiB (14%)\n\nEnjoy...\n\nRequested by alorati.","torrent":{"xt":"urn:btih:98179c70c86479210465fa24fc91bc13b98e9ab8","amp;dn":"Point+Break-720p+MP4+AAC+x264+BRRip+1991-CC","amp;tr":["udp%3A%2F%2Ftracker.openbittorrent.com%3A80","udp%3A%2F%2Fopen.demonii.com%3A1337","udp%3A%2F%2Ftracker.coppersurfer.tk%3A6969","udp%3A%2F%2Fexodus.desync.com%3A6969"],"infoHash":"98179c70c86479210465fa24fc91bc13b98e9ab8","infoHashBuffer":{"type":"Buffer","data":[152,23,156,112,200,100,121,33,4,101,250,36,252,145,188,19,185,142,154,184]},"announce":[],"urlList":[]}}